<mxfile host="app.diagrams.net" modified="2023-09-29T07:32:56.382Z" agent="Mozilla/5.0 (Macintosh; Intel Mac OS X 10_15_7) AppleWebKit/537.36 (KHTML, like Gecko) Chrome/117.0.0.0 Safari/537.36" etag="s05MMtpphQlznQkUShwe" version="22.0.0" type="github" pages="4">
  <diagram name="Context Diagram" id="8BxVGIxLLyAESS8wBwZz">
    <mxGraphModel dx="2391" dy="811" grid="0" gridSize="10" guides="1" tooltips="1" connect="1" arrows="1" fold="1" page="1" pageScale="1" pageWidth="1169" pageHeight="827" math="0" shadow="0">
      <root>
        <mxCell id="0" />
        <mxCell id="1" parent="0" />
        <mxCell id="LqWBvKx1bmY6kXAYjdjF-1" value="&lt;font style=&quot;font-size: 22px;&quot;&gt;MENTORING PLATFORM &lt;br&gt;MANAGEMENT SYSTEM&lt;/font&gt;" style="whiteSpace=wrap;html=1;aspect=fixed;" parent="1" vertex="1">
          <mxGeometry x="-732" y="259" width="310" height="310" as="geometry" />
        </mxCell>
        <mxCell id="LqWBvKx1bmY6kXAYjdjF-7" style="edgeStyle=orthogonalEdgeStyle;rounded=0;orthogonalLoop=1;jettySize=auto;html=1;entryX=0;entryY=0.5;entryDx=0;entryDy=0;" parent="1" source="LqWBvKx1bmY6kXAYjdjF-2" target="LqWBvKx1bmY6kXAYjdjF-1" edge="1">
          <mxGeometry relative="1" as="geometry" />
        </mxCell>
        <mxCell id="LqWBvKx1bmY6kXAYjdjF-2" value="&lt;font style=&quot;font-size: 16px;&quot;&gt;MENTEE&lt;/font&gt;" style="rounded=1;whiteSpace=wrap;html=1;" parent="1" vertex="1">
          <mxGeometry x="-1098" y="364" width="185" height="100" as="geometry" />
        </mxCell>
        <mxCell id="LqWBvKx1bmY6kXAYjdjF-6" style="edgeStyle=orthogonalEdgeStyle;rounded=0;orthogonalLoop=1;jettySize=auto;html=1;entryX=0;entryY=0.5;entryDx=0;entryDy=0;" parent="1" source="LqWBvKx1bmY6kXAYjdjF-3" target="LqWBvKx1bmY6kXAYjdjF-1" edge="1">
          <mxGeometry relative="1" as="geometry">
            <Array as="points">
              <mxPoint x="-833" y="259" />
              <mxPoint x="-833" y="414" />
            </Array>
          </mxGeometry>
        </mxCell>
        <mxCell id="LqWBvKx1bmY6kXAYjdjF-3" value="&lt;font style=&quot;font-size: 16px;&quot;&gt;MENTOR&lt;/font&gt;" style="rounded=1;whiteSpace=wrap;html=1;" parent="1" vertex="1">
          <mxGeometry x="-1103" y="209" width="190" height="100" as="geometry" />
        </mxCell>
        <mxCell id="LqWBvKx1bmY6kXAYjdjF-8" style="edgeStyle=orthogonalEdgeStyle;rounded=0;orthogonalLoop=1;jettySize=auto;html=1;entryX=0;entryY=0.5;entryDx=0;entryDy=0;" parent="1" source="LqWBvKx1bmY6kXAYjdjF-4" target="LqWBvKx1bmY6kXAYjdjF-1" edge="1">
          <mxGeometry relative="1" as="geometry">
            <Array as="points">
              <mxPoint x="-833" y="569" />
              <mxPoint x="-833" y="414" />
            </Array>
          </mxGeometry>
        </mxCell>
        <mxCell id="LqWBvKx1bmY6kXAYjdjF-4" value="&lt;font style=&quot;font-size: 16px;&quot;&gt;CLIENT&lt;/font&gt;" style="rounded=1;whiteSpace=wrap;html=1;" parent="1" vertex="1">
          <mxGeometry x="-1098" y="519" width="190" height="100" as="geometry" />
        </mxCell>
        <mxCell id="LqWBvKx1bmY6kXAYjdjF-10" style="edgeStyle=orthogonalEdgeStyle;rounded=0;orthogonalLoop=1;jettySize=auto;html=1;entryX=1;entryY=0.5;entryDx=0;entryDy=0;" parent="1" source="LqWBvKx1bmY6kXAYjdjF-9" edge="1">
          <mxGeometry relative="1" as="geometry">
            <mxPoint x="-422" y="322" as="targetPoint" />
          </mxGeometry>
        </mxCell>
        <mxCell id="LqWBvKx1bmY6kXAYjdjF-9" value="&lt;font style=&quot;font-size: 16px;&quot;&gt;AI&lt;/font&gt;" style="rounded=1;whiteSpace=wrap;html=1;" parent="1" vertex="1">
          <mxGeometry x="-253" y="277" width="180" height="90" as="geometry" />
        </mxCell>
        <mxCell id="c_XYRL-yF0U3RU6kD8zn-1" value="&lt;span style=&quot;color: rgb(0, 0, 0); font-family: Helvetica; font-size: 19px; font-style: normal; font-variant-ligatures: normal; font-variant-caps: normal; font-weight: 400; letter-spacing: normal; orphans: 2; text-align: center; text-indent: 0px; text-transform: none; widows: 2; word-spacing: 0px; -webkit-text-stroke-width: 0px; background-color: rgb(251, 251, 251); text-decoration-thickness: initial; text-decoration-style: initial; text-decoration-color: initial; float: none; display: inline !important;&quot;&gt;&amp;lt;&amp;lt; system &amp;gt;&amp;gt;&lt;/span&gt;" style="text;html=1;strokeColor=none;fillColor=none;align=center;verticalAlign=middle;whiteSpace=wrap;rounded=0;" parent="1" vertex="1">
          <mxGeometry x="-222" y="367" width="124" height="42" as="geometry" />
        </mxCell>
        <mxCell id="yNRG8loQbQYoNwvpmZmg-1" value="&lt;font style=&quot;font-size: 16px;&quot;&gt;PAYMENT SYSTEM&lt;/font&gt;" style="rounded=1;whiteSpace=wrap;html=1;" parent="1" vertex="1">
          <mxGeometry x="-256" y="462" width="180" height="90" as="geometry" />
        </mxCell>
        <mxCell id="yNRG8loQbQYoNwvpmZmg-2" value="&lt;span style=&quot;color: rgb(0, 0, 0); font-family: Helvetica; font-size: 19px; font-style: normal; font-variant-ligatures: normal; font-variant-caps: normal; font-weight: 400; letter-spacing: normal; orphans: 2; text-align: center; text-indent: 0px; text-transform: none; widows: 2; word-spacing: 0px; -webkit-text-stroke-width: 0px; background-color: rgb(251, 251, 251); text-decoration-thickness: initial; text-decoration-style: initial; text-decoration-color: initial; float: none; display: inline !important;&quot;&gt;&amp;lt;&amp;lt; system &amp;gt;&amp;gt;&lt;/span&gt;" style="text;html=1;strokeColor=none;fillColor=none;align=center;verticalAlign=middle;whiteSpace=wrap;rounded=0;" parent="1" vertex="1">
          <mxGeometry x="-228" y="552" width="124" height="42" as="geometry" />
        </mxCell>
        <mxCell id="yNRG8loQbQYoNwvpmZmg-3" style="edgeStyle=orthogonalEdgeStyle;rounded=0;orthogonalLoop=1;jettySize=auto;html=1;entryX=0.999;entryY=0.812;entryDx=0;entryDy=0;entryPerimeter=0;" parent="1" target="LqWBvKx1bmY6kXAYjdjF-1" edge="1">
          <mxGeometry relative="1" as="geometry">
            <mxPoint x="-256" y="511" as="sourcePoint" />
            <mxPoint x="-415" y="511" as="targetPoint" />
          </mxGeometry>
        </mxCell>
      </root>
    </mxGraphModel>
  </diagram>
  <diagram id="jk8Hdggaa9UVepOCzyuk" name="Packages diagram">
    <mxGraphModel dx="2222" dy="1475" grid="0" gridSize="10" guides="1" tooltips="1" connect="1" arrows="1" fold="1" page="1" pageScale="1" pageWidth="1200" pageHeight="1920" background="#FFFFFF" math="0" shadow="0">
      <root>
        <mxCell id="0" />
        <mxCell id="1" parent="0" />
        <mxCell id="6tiA2QTYMTSSAAsWWQQs-48" value="" style="group" parent="1" vertex="1" connectable="0">
          <mxGeometry x="225" y="60" width="750" height="1310" as="geometry" />
        </mxCell>
        <mxCell id="6tiA2QTYMTSSAAsWWQQs-3" value="&lt;font style=&quot;font-size: 24px;&quot;&gt;MENTORING APPLICATION&lt;/font&gt;" style="rounded=0;whiteSpace=wrap;html=1;verticalAlign=top;" parent="6tiA2QTYMTSSAAsWWQQs-48" vertex="1">
          <mxGeometry width="750" height="1310" as="geometry" />
        </mxCell>
        <mxCell id="6tiA2QTYMTSSAAsWWQQs-4" value="User Management" style="shape=folder;fontStyle=1;spacingTop=10;tabWidth=40;tabHeight=14;tabPosition=left;html=1;whiteSpace=wrap;verticalAlign=top;" parent="6tiA2QTYMTSSAAsWWQQs-48" vertex="1">
          <mxGeometry x="261.25" y="550" width="227.5" height="160" as="geometry" />
        </mxCell>
        <mxCell id="6tiA2QTYMTSSAAsWWQQs-35" style="edgeStyle=orthogonalEdgeStyle;rounded=0;orthogonalLoop=1;jettySize=auto;html=1;entryX=0.5;entryY=1;entryDx=0;entryDy=0;entryPerimeter=0;dashed=1;exitX=0.495;exitY=0.111;exitDx=0;exitDy=0;exitPerimeter=0;" parent="6tiA2QTYMTSSAAsWWQQs-48" source="6tiA2QTYMTSSAAsWWQQs-5" target="6tiA2QTYMTSSAAsWWQQs-4" edge="1">
          <mxGeometry relative="1" as="geometry" />
        </mxCell>
        <mxCell id="6tiA2QTYMTSSAAsWWQQs-5" value="Admin" style="shape=folder;fontStyle=1;spacingTop=10;tabWidth=40;tabHeight=14;tabPosition=left;html=1;whiteSpace=wrap;verticalAlign=top;" parent="6tiA2QTYMTSSAAsWWQQs-48" vertex="1">
          <mxGeometry x="271" y="800" width="208.75" height="140" as="geometry" />
        </mxCell>
        <mxCell id="6tiA2QTYMTSSAAsWWQQs-43" style="edgeStyle=orthogonalEdgeStyle;rounded=0;orthogonalLoop=1;jettySize=auto;html=1;entryX=0.278;entryY=0.101;entryDx=0;entryDy=0;entryPerimeter=0;dashed=1;" parent="6tiA2QTYMTSSAAsWWQQs-48" source="6tiA2QTYMTSSAAsWWQQs-7" target="6tiA2QTYMTSSAAsWWQQs-4" edge="1">
          <mxGeometry relative="1" as="geometry">
            <Array as="points">
              <mxPoint x="88.75" y="220" />
              <mxPoint x="88.75" y="480" />
              <mxPoint x="324.75" y="480" />
            </Array>
          </mxGeometry>
        </mxCell>
        <mxCell id="6tiA2QTYMTSSAAsWWQQs-7" value="Content" style="shape=folder;fontStyle=1;spacingTop=10;tabWidth=40;tabHeight=14;tabPosition=left;html=1;whiteSpace=wrap;verticalAlign=top;" parent="6tiA2QTYMTSSAAsWWQQs-48" vertex="1">
          <mxGeometry x="138.75" y="130" width="160" height="110" as="geometry" />
        </mxCell>
        <mxCell id="6tiA2QTYMTSSAAsWWQQs-38" style="edgeStyle=orthogonalEdgeStyle;rounded=0;orthogonalLoop=1;jettySize=auto;html=1;entryX=0;entryY=0;entryDx=133.75;entryDy=14;entryPerimeter=0;dashed=1;" parent="6tiA2QTYMTSSAAsWWQQs-48" source="6tiA2QTYMTSSAAsWWQQs-9" target="6tiA2QTYMTSSAAsWWQQs-4" edge="1">
          <mxGeometry relative="1" as="geometry">
            <Array as="points">
              <mxPoint x="568.75" y="430" />
              <mxPoint x="394.75" y="430" />
            </Array>
          </mxGeometry>
        </mxCell>
        <mxCell id="6tiA2QTYMTSSAAsWWQQs-9" value="Mentorship" style="shape=folder;fontStyle=1;spacingTop=10;tabWidth=40;tabHeight=14;tabPosition=left;html=1;whiteSpace=wrap;verticalAlign=top;" parent="6tiA2QTYMTSSAAsWWQQs-48" vertex="1">
          <mxGeometry x="488.75" y="210" width="141.25" height="100" as="geometry" />
        </mxCell>
        <mxCell id="6tiA2QTYMTSSAAsWWQQs-41" style="edgeStyle=orthogonalEdgeStyle;rounded=0;orthogonalLoop=1;jettySize=auto;html=1;entryX=0;entryY=0;entryDx=0;entryDy=57;entryPerimeter=0;dashed=1;" parent="6tiA2QTYMTSSAAsWWQQs-48" source="6tiA2QTYMTSSAAsWWQQs-7" target="6tiA2QTYMTSSAAsWWQQs-9" edge="1">
          <mxGeometry relative="1" as="geometry" />
        </mxCell>
        <mxCell id="6tiA2QTYMTSSAAsWWQQs-10" value="Payment" style="shape=folder;fontStyle=1;spacingTop=10;tabWidth=40;tabHeight=14;tabPosition=left;html=1;whiteSpace=wrap;verticalAlign=top;" parent="6tiA2QTYMTSSAAsWWQQs-48" vertex="1">
          <mxGeometry x="296.25" y="990" width="162.5" height="120" as="geometry" />
        </mxCell>
        <mxCell id="6tiA2QTYMTSSAAsWWQQs-44" style="edgeStyle=orthogonalEdgeStyle;rounded=0;orthogonalLoop=1;jettySize=auto;html=1;entryX=0;entryY=0;entryDx=162.5;entryDy=67;entryPerimeter=0;dashed=1;" parent="6tiA2QTYMTSSAAsWWQQs-48" source="6tiA2QTYMTSSAAsWWQQs-4" target="6tiA2QTYMTSSAAsWWQQs-10" edge="1">
          <mxGeometry relative="1" as="geometry">
            <Array as="points">
              <mxPoint x="508.75" y="630" />
              <mxPoint x="508.75" y="1057" />
            </Array>
          </mxGeometry>
        </mxCell>
        <mxCell id="6tiA2QTYMTSSAAsWWQQs-32" style="edgeStyle=orthogonalEdgeStyle;rounded=0;orthogonalLoop=1;jettySize=auto;html=1;entryX=0.281;entryY=0.09;entryDx=0;entryDy=0;entryPerimeter=0;dashed=1;" parent="6tiA2QTYMTSSAAsWWQQs-48" source="6tiA2QTYMTSSAAsWWQQs-11" target="6tiA2QTYMTSSAAsWWQQs-4" edge="1">
          <mxGeometry relative="1" as="geometry" />
        </mxCell>
        <mxCell id="6tiA2QTYMTSSAAsWWQQs-40" style="edgeStyle=orthogonalEdgeStyle;rounded=0;orthogonalLoop=1;jettySize=auto;html=1;entryX=0;entryY=0;entryDx=0;entryDy=57;entryPerimeter=0;dashed=1;" parent="6tiA2QTYMTSSAAsWWQQs-48" source="6tiA2QTYMTSSAAsWWQQs-11" target="6tiA2QTYMTSSAAsWWQQs-9" edge="1">
          <mxGeometry relative="1" as="geometry" />
        </mxCell>
        <mxCell id="6tiA2QTYMTSSAAsWWQQs-11" value="Communications" style="shape=folder;fontStyle=1;spacingTop=10;tabWidth=40;tabHeight=14;tabPosition=left;html=1;whiteSpace=wrap;verticalAlign=top;" parent="6tiA2QTYMTSSAAsWWQQs-48" vertex="1">
          <mxGeometry x="138.75" y="300" width="160" height="110" as="geometry" />
        </mxCell>
        <mxCell id="6tiA2QTYMTSSAAsWWQQs-59" style="edgeStyle=orthogonalEdgeStyle;rounded=0;orthogonalLoop=1;jettySize=auto;html=1;entryX=0;entryY=0;entryDx=0;entryDy=50.5;entryPerimeter=0;" parent="1" source="6tiA2QTYMTSSAAsWWQQs-49" target="6tiA2QTYMTSSAAsWWQQs-4" edge="1">
          <mxGeometry relative="1" as="geometry">
            <Array as="points">
              <mxPoint x="270" y="430" />
              <mxPoint x="270" y="661" />
            </Array>
          </mxGeometry>
        </mxCell>
        <mxCell id="6tiA2QTYMTSSAAsWWQQs-49" value="MENTEE" style="shape=umlActor;verticalLabelPosition=bottom;verticalAlign=top;html=1;outlineConnect=0;" parent="1" vertex="1">
          <mxGeometry x="50" y="370" width="80" height="120" as="geometry" />
        </mxCell>
        <mxCell id="6tiA2QTYMTSSAAsWWQQs-56" style="edgeStyle=orthogonalEdgeStyle;rounded=0;orthogonalLoop=1;jettySize=auto;html=1;entryX=0;entryY=0;entryDx=0;entryDy=67;entryPerimeter=0;" parent="1" source="6tiA2QTYMTSSAAsWWQQs-51" target="6tiA2QTYMTSSAAsWWQQs-10" edge="1">
          <mxGeometry relative="1" as="geometry">
            <Array as="points">
              <mxPoint x="310" y="930" />
              <mxPoint x="310" y="1117" />
            </Array>
          </mxGeometry>
        </mxCell>
        <mxCell id="6tiA2QTYMTSSAAsWWQQs-51" value="CLIENT" style="shape=umlActor;verticalLabelPosition=bottom;verticalAlign=top;html=1;outlineConnect=0;" parent="1" vertex="1">
          <mxGeometry x="50" y="870" width="80" height="120" as="geometry" />
        </mxCell>
        <mxCell id="6tiA2QTYMTSSAAsWWQQs-57" style="edgeStyle=orthogonalEdgeStyle;rounded=0;orthogonalLoop=1;jettySize=auto;html=1;entryX=0;entryY=0;entryDx=0;entryDy=45.5;entryPerimeter=0;" parent="1" source="6tiA2QTYMTSSAAsWWQQs-53" target="6tiA2QTYMTSSAAsWWQQs-5" edge="1">
          <mxGeometry relative="1" as="geometry">
            <Array as="points">
              <mxPoint x="440" y="680" />
              <mxPoint x="440" y="906" />
            </Array>
          </mxGeometry>
        </mxCell>
        <mxCell id="6tiA2QTYMTSSAAsWWQQs-58" style="edgeStyle=orthogonalEdgeStyle;rounded=0;orthogonalLoop=1;jettySize=auto;html=1;entryX=0.007;entryY=0.44;entryDx=0;entryDy=0;entryPerimeter=0;" parent="1" source="6tiA2QTYMTSSAAsWWQQs-53" target="6tiA2QTYMTSSAAsWWQQs-4" edge="1">
          <mxGeometry relative="1" as="geometry" />
        </mxCell>
        <mxCell id="6tiA2QTYMTSSAAsWWQQs-53" value="MENTOR" style="shape=umlActor;verticalLabelPosition=bottom;verticalAlign=top;html=1;outlineConnect=0;" parent="1" vertex="1">
          <mxGeometry x="50" y="620" width="80" height="120" as="geometry" />
        </mxCell>
        <mxCell id="6tiA2QTYMTSSAAsWWQQs-63" style="edgeStyle=orthogonalEdgeStyle;rounded=0;orthogonalLoop=1;jettySize=auto;html=1;entryX=0.992;entryY=0.498;entryDx=0;entryDy=0;entryPerimeter=0;dashed=1;" parent="1" source="6tiA2QTYMTSSAAsWWQQs-61" target="6tiA2QTYMTSSAAsWWQQs-9" edge="1">
          <mxGeometry relative="1" as="geometry" />
        </mxCell>
        <mxCell id="6tiA2QTYMTSSAAsWWQQs-61" value="&amp;lt;&amp;lt; systeme &amp;gt;&amp;gt;&lt;br&gt;external macthing system" style="shape=umlActor;verticalLabelPosition=bottom;verticalAlign=top;html=1;outlineConnect=0;" parent="1" vertex="1">
          <mxGeometry x="1070" y="260" width="80" height="120" as="geometry" />
        </mxCell>
        <mxCell id="6tiA2QTYMTSSAAsWWQQs-65" style="edgeStyle=orthogonalEdgeStyle;rounded=0;orthogonalLoop=1;jettySize=auto;html=1;entryX=0;entryY=0;entryDx=162.5;entryDy=93.5;entryPerimeter=0;dashed=1;" parent="1" source="6tiA2QTYMTSSAAsWWQQs-64" target="6tiA2QTYMTSSAAsWWQQs-10" edge="1">
          <mxGeometry relative="1" as="geometry" />
        </mxCell>
        <mxCell id="6tiA2QTYMTSSAAsWWQQs-64" value="&amp;lt;&amp;lt; systeme &amp;gt;&amp;gt;&lt;br&gt;payment gateway" style="shape=umlActor;verticalLabelPosition=bottom;verticalAlign=top;html=1;outlineConnect=0;" parent="1" vertex="1">
          <mxGeometry x="1050" y="1030" width="80" height="120" as="geometry" />
        </mxCell>
      </root>
    </mxGraphModel>
  </diagram>
  <diagram id="-pI7G-tu4PbJuWFaTQHP" name="Use case diagram">
    <mxGraphModel dx="4473" dy="2703" grid="0" gridSize="10" guides="1" tooltips="1" connect="1" arrows="1" fold="1" page="0" pageScale="1" pageWidth="1200" pageHeight="1920" math="0" shadow="0">
      <root>
        <mxCell id="0" />
        <mxCell id="1" parent="0" />
        <mxCell id="dLT3Ldc4Rn0UWTLQWtMB-1" value="&lt;font style=&quot;font-size: 24px;&quot;&gt;MENTORING APPLICATION&lt;/font&gt;" style="rounded=0;whiteSpace=wrap;html=1;verticalAlign=top;" parent="1" vertex="1">
          <mxGeometry x="237.5" y="160" width="620" height="1915" as="geometry" />
        </mxCell>
        <mxCell id="VM8novoYbnYx3EKz7XHy-15" value="" style="rounded=0;whiteSpace=wrap;html=1;fillColor=none;strokeOpacity=100;fillOpacity=100;imageAspect=1;" parent="1" vertex="1">
          <mxGeometry x="272.5" y="220" width="550" height="1264" as="geometry" />
        </mxCell>
        <mxCell id="VM8novoYbnYx3EKz7XHy-7" value="" style="rounded=0;whiteSpace=wrap;html=1;fillColor=none;strokeOpacity=100;fillOpacity=100;imageAspect=1;" parent="1" vertex="1">
          <mxGeometry x="339" y="236" width="427.5" height="972" as="geometry" />
        </mxCell>
        <mxCell id="VM8novoYbnYx3EKz7XHy-13" style="edgeStyle=none;rounded=0;orthogonalLoop=1;jettySize=auto;html=1;entryX=-0.005;entryY=0.279;entryDx=0;entryDy=0;entryPerimeter=0;" parent="1" source="dLT3Ldc4Rn0UWTLQWtMB-13" target="VM8novoYbnYx3EKz7XHy-7" edge="1">
          <mxGeometry relative="1" as="geometry" />
        </mxCell>
        <mxCell id="dLT3Ldc4Rn0UWTLQWtMB-13" value="&lt;font style=&quot;font-size: 30px;&quot;&gt;Mentee&lt;/font&gt;" style="shape=umlActor;verticalLabelPosition=bottom;verticalAlign=top;html=1;" parent="1" vertex="1">
          <mxGeometry x="64" y="236" width="80" height="160" as="geometry" />
        </mxCell>
        <mxCell id="VM8novoYbnYx3EKz7XHy-14" style="edgeStyle=none;rounded=0;orthogonalLoop=1;jettySize=auto;html=1;entryX=0.004;entryY=0.374;entryDx=0;entryDy=0;entryPerimeter=0;" parent="1" source="dLT3Ldc4Rn0UWTLQWtMB-18" target="VM8novoYbnYx3EKz7XHy-7" edge="1">
          <mxGeometry relative="1" as="geometry" />
        </mxCell>
        <mxCell id="VM8novoYbnYx3EKz7XHy-16" style="edgeStyle=none;rounded=0;orthogonalLoop=1;jettySize=auto;html=1;entryX=-0.002;entryY=0.337;entryDx=0;entryDy=0;entryPerimeter=0;" parent="1" source="dLT3Ldc4Rn0UWTLQWtMB-18" target="VM8novoYbnYx3EKz7XHy-15" edge="1">
          <mxGeometry relative="1" as="geometry" />
        </mxCell>
        <mxCell id="dLT3Ldc4Rn0UWTLQWtMB-18" value="&lt;font style=&quot;font-size: 30px;&quot;&gt;Mentor&lt;/font&gt;" style="shape=umlActor;verticalLabelPosition=bottom;verticalAlign=top;html=1;" parent="1" vertex="1">
          <mxGeometry x="60" y="544" width="80" height="160" as="geometry" />
        </mxCell>
        <mxCell id="dLT3Ldc4Rn0UWTLQWtMB-39" style="rounded=0;orthogonalLoop=1;jettySize=auto;html=1;entryX=0.008;entryY=0.421;entryDx=0;entryDy=0;entryPerimeter=0;" parent="1" source="dLT3Ldc4Rn0UWTLQWtMB-19" target="dLT3Ldc4Rn0UWTLQWtMB-10" edge="1">
          <mxGeometry relative="1" as="geometry">
            <mxPoint x="140" y="1057" as="sourcePoint" />
            <mxPoint x="469.9981477231453" y="1104.9979417112997" as="targetPoint" />
          </mxGeometry>
        </mxCell>
        <mxCell id="VM8novoYbnYx3EKz7XHy-12" style="edgeStyle=none;rounded=0;orthogonalLoop=1;jettySize=auto;html=1;entryX=-0.016;entryY=0.463;entryDx=0;entryDy=0;entryPerimeter=0;" parent="1" source="dLT3Ldc4Rn0UWTLQWtMB-19" target="VM8novoYbnYx3EKz7XHy-11" edge="1">
          <mxGeometry relative="1" as="geometry">
            <mxPoint x="137" y="1042" as="sourcePoint" />
          </mxGeometry>
        </mxCell>
        <mxCell id="dLT3Ldc4Rn0UWTLQWtMB-19" value="&lt;font style=&quot;font-size: 30px;&quot;&gt;Client&lt;/font&gt;" style="shape=umlActor;verticalLabelPosition=bottom;verticalAlign=top;html=1;" parent="1" vertex="1">
          <mxGeometry x="60" y="945" width="80" height="160" as="geometry" />
        </mxCell>
        <mxCell id="VM8novoYbnYx3EKz7XHy-6" style="rounded=0;orthogonalLoop=1;jettySize=auto;html=1;entryX=0.988;entryY=0.493;entryDx=0;entryDy=0;entryPerimeter=0;" parent="1" source="VM8novoYbnYx3EKz7XHy-4" target="VM8novoYbnYx3EKz7XHy-5" edge="1">
          <mxGeometry relative="1" as="geometry" />
        </mxCell>
        <mxCell id="VM8novoYbnYx3EKz7XHy-4" value="&lt;font style=&quot;font-size: 30px;&quot;&gt;&amp;lt;&amp;lt; system&amp;nbsp;&amp;gt;&amp;gt;&lt;br&gt;AI&lt;br&gt;&lt;/font&gt;" style="shape=umlActor;verticalLabelPosition=bottom;verticalAlign=top;html=1;" parent="1" vertex="1">
          <mxGeometry x="990" y="1290" width="80" height="160" as="geometry" />
        </mxCell>
        <mxCell id="VM8novoYbnYx3EKz7XHy-11" value="" style="rounded=0;whiteSpace=wrap;html=1;fillColor=none;strokeOpacity=100;fillOpacity=100;imageAspect=1;" parent="1" vertex="1">
          <mxGeometry x="448.07" y="257" width="193.87" height="538" as="geometry" />
        </mxCell>
        <mxCell id="dLT3Ldc4Rn0UWTLQWtMB-10" value="Admin actions" style="ellipse;whiteSpace=wrap;html=1;" parent="1" vertex="1">
          <mxGeometry x="468.13" y="1368" width="155" height="100" as="geometry" />
        </mxCell>
        <mxCell id="dLT3Ldc4Rn0UWTLQWtMB-21" value="Create mentoring content" style="ellipse;whiteSpace=wrap;html=1;" parent="1" vertex="1">
          <mxGeometry x="464.38" y="1228" width="155" height="100" as="geometry" />
        </mxCell>
        <mxCell id="VM8novoYbnYx3EKz7XHy-29" style="edgeStyle=orthogonalEdgeStyle;rounded=0;orthogonalLoop=1;jettySize=auto;html=1;dashed=1;exitX=0;exitY=0.5;exitDx=0;exitDy=0;" parent="1" source="VM8novoYbnYx3EKz7XHy-5" target="dLT3Ldc4Rn0UWTLQWtMB-5" edge="1">
          <mxGeometry relative="1" as="geometry">
            <Array as="points">
              <mxPoint x="390" y="1717" />
              <mxPoint x="390" y="888" />
            </Array>
          </mxGeometry>
        </mxCell>
        <mxCell id="VM8novoYbnYx3EKz7XHy-30" value="&amp;lt;&amp;lt; includes &amp;gt;&amp;gt;" style="edgeLabel;html=1;align=center;verticalAlign=middle;resizable=0;points=[];" parent="VM8novoYbnYx3EKz7XHy-29" vertex="1" connectable="0">
          <mxGeometry x="-0.1297" y="-2" relative="1" as="geometry">
            <mxPoint as="offset" />
          </mxGeometry>
        </mxCell>
        <mxCell id="VM8novoYbnYx3EKz7XHy-5" value="Matches mentee &lt;br&gt;w/ mentor" style="ellipse;whiteSpace=wrap;html=1;" parent="1" vertex="1">
          <mxGeometry x="466.88" y="1667" width="155" height="100" as="geometry" />
        </mxCell>
        <mxCell id="VM8novoYbnYx3EKz7XHy-27" style="edgeStyle=orthogonalEdgeStyle;rounded=0;orthogonalLoop=1;jettySize=auto;html=1;entryX=0.975;entryY=0.331;entryDx=0;entryDy=0;entryPerimeter=0;dashed=1;" parent="1" source="dLT3Ldc4Rn0UWTLQWtMB-2" target="dLT3Ldc4Rn0UWTLQWtMB-3" edge="1">
          <mxGeometry relative="1" as="geometry">
            <Array as="points">
              <mxPoint x="700" y="320" />
              <mxPoint x="700" y="433" />
            </Array>
          </mxGeometry>
        </mxCell>
        <mxCell id="VM8novoYbnYx3EKz7XHy-39" value="&amp;lt;&amp;lt; includes&amp;gt;&amp;gt;" style="edgeLabel;html=1;align=center;verticalAlign=middle;resizable=0;points=[];" parent="VM8novoYbnYx3EKz7XHy-27" vertex="1" connectable="0">
          <mxGeometry x="-0.065" y="1" relative="1" as="geometry">
            <mxPoint as="offset" />
          </mxGeometry>
        </mxCell>
        <mxCell id="dLT3Ldc4Rn0UWTLQWtMB-2" value="Register Account" style="ellipse;whiteSpace=wrap;html=1;" parent="1" vertex="1">
          <mxGeometry x="466.25" y="270" width="155" height="100" as="geometry" />
        </mxCell>
        <mxCell id="VM8novoYbnYx3EKz7XHy-17" style="edgeStyle=orthogonalEdgeStyle;rounded=0;orthogonalLoop=1;jettySize=auto;html=1;dashed=1;" parent="1" source="dLT3Ldc4Rn0UWTLQWtMB-3" target="dLT3Ldc4Rn0UWTLQWtMB-10" edge="1">
          <mxGeometry relative="1" as="geometry">
            <Array as="points">
              <mxPoint x="740" y="450" />
              <mxPoint x="740" y="1420" />
            </Array>
          </mxGeometry>
        </mxCell>
        <mxCell id="VM8novoYbnYx3EKz7XHy-37" value="&amp;lt;&amp;lt; includes&amp;gt;&amp;gt;" style="edgeLabel;html=1;align=center;verticalAlign=middle;resizable=0;points=[];" parent="VM8novoYbnYx3EKz7XHy-17" vertex="1" connectable="0">
          <mxGeometry x="0.8789" relative="1" as="geometry">
            <mxPoint as="offset" />
          </mxGeometry>
        </mxCell>
        <mxCell id="dLT3Ldc4Rn0UWTLQWtMB-3" value="Log In" style="ellipse;whiteSpace=wrap;html=1;" parent="1" vertex="1">
          <mxGeometry x="470" y="400" width="155" height="100" as="geometry" />
        </mxCell>
        <mxCell id="dLT3Ldc4Rn0UWTLQWtMB-4" value="View mentoring content" style="ellipse;whiteSpace=wrap;html=1;" parent="1" vertex="1">
          <mxGeometry x="470" y="520" width="150" height="100" as="geometry" />
        </mxCell>
        <mxCell id="dLT3Ldc4Rn0UWTLQWtMB-5" value="Accept mentor/mentee matching" style="ellipse;whiteSpace=wrap;html=1;" parent="1" vertex="1">
          <mxGeometry x="468.13" y="838" width="155" height="100" as="geometry" />
        </mxCell>
        <mxCell id="dLT3Ldc4Rn0UWTLQWtMB-8" value="Manage &lt;br&gt;mentorship" style="ellipse;whiteSpace=wrap;html=1;" parent="1" vertex="1">
          <mxGeometry x="464.38" y="958" width="155" height="100" as="geometry" />
        </mxCell>
        <mxCell id="dLT3Ldc4Rn0UWTLQWtMB-9" value="Communicate" style="ellipse;whiteSpace=wrap;html=1;" parent="1" vertex="1">
          <mxGeometry x="466.88" y="1088" width="155" height="100" as="geometry" />
        </mxCell>
        <mxCell id="VM8novoYbnYx3EKz7XHy-22" value="" style="endArrow=classic;html=1;rounded=0;dashed=1;" parent="1" target="dLT3Ldc4Rn0UWTLQWtMB-4" edge="1">
          <mxGeometry width="50" height="50" relative="1" as="geometry">
            <mxPoint x="740" y="570" as="sourcePoint" />
            <mxPoint x="700" y="550" as="targetPoint" />
          </mxGeometry>
        </mxCell>
        <mxCell id="VM8novoYbnYx3EKz7XHy-33" value="&amp;lt;&amp;lt; includes&amp;gt;&amp;gt;" style="edgeLabel;html=1;align=center;verticalAlign=middle;resizable=0;points=[];" parent="VM8novoYbnYx3EKz7XHy-22" vertex="1" connectable="0">
          <mxGeometry x="-0.1024" relative="1" as="geometry">
            <mxPoint as="offset" />
          </mxGeometry>
        </mxCell>
        <mxCell id="VM8novoYbnYx3EKz7XHy-23" value="&amp;lt;&amp;lt; includes&amp;gt;&amp;gt;" style="endArrow=classic;html=1;rounded=0;dashed=1;" parent="1" target="dLT3Ldc4Rn0UWTLQWtMB-5" edge="1">
          <mxGeometry width="50" height="50" relative="1" as="geometry">
            <mxPoint x="740" y="886" as="sourcePoint" />
            <mxPoint x="623.75" y="699.47" as="targetPoint" />
          </mxGeometry>
        </mxCell>
        <mxCell id="VM8novoYbnYx3EKz7XHy-24" value="" style="endArrow=classic;html=1;rounded=0;dashed=1;" parent="1" target="dLT3Ldc4Rn0UWTLQWtMB-8" edge="1">
          <mxGeometry width="50" height="50" relative="1" as="geometry">
            <mxPoint x="742" y="1010" as="sourcePoint" />
            <mxPoint x="621.25" y="820" as="targetPoint" />
          </mxGeometry>
        </mxCell>
        <mxCell id="VM8novoYbnYx3EKz7XHy-34" value="&amp;lt;&amp;lt; includes&amp;gt;&amp;gt;" style="edgeLabel;html=1;align=center;verticalAlign=middle;resizable=0;points=[];" parent="VM8novoYbnYx3EKz7XHy-24" vertex="1" connectable="0">
          <mxGeometry x="-0.0067" y="-1" relative="1" as="geometry">
            <mxPoint as="offset" />
          </mxGeometry>
        </mxCell>
        <mxCell id="VM8novoYbnYx3EKz7XHy-25" value="" style="endArrow=classic;html=1;rounded=0;dashed=1;" parent="1" target="dLT3Ldc4Rn0UWTLQWtMB-9" edge="1">
          <mxGeometry width="50" height="50" relative="1" as="geometry">
            <mxPoint x="743" y="1138" as="sourcePoint" />
            <mxPoint x="621.25" y="949.47" as="targetPoint" />
          </mxGeometry>
        </mxCell>
        <mxCell id="VM8novoYbnYx3EKz7XHy-35" value="&amp;lt;&amp;lt; includes&amp;gt;&amp;gt;" style="edgeLabel;html=1;align=center;verticalAlign=middle;resizable=0;points=[];" parent="VM8novoYbnYx3EKz7XHy-25" vertex="1" connectable="0">
          <mxGeometry x="-0.0847" relative="1" as="geometry">
            <mxPoint as="offset" />
          </mxGeometry>
        </mxCell>
        <mxCell id="wR-n1qSxGNtJBplHK7vN-1" value="update/ delete profile" style="ellipse;whiteSpace=wrap;html=1;" parent="1" vertex="1">
          <mxGeometry x="467.5" y="659" width="155" height="100" as="geometry" />
        </mxCell>
        <mxCell id="Ie-eCAqBjwcW4kxqSPMd-6" style="rounded=0;orthogonalLoop=1;jettySize=auto;html=1;entryX=0.977;entryY=0.37;entryDx=0;entryDy=0;entryPerimeter=0;" parent="1" source="wR-n1qSxGNtJBplHK7vN-2" target="Ie-eCAqBjwcW4kxqSPMd-3" edge="1">
          <mxGeometry relative="1" as="geometry" />
        </mxCell>
        <mxCell id="wR-n1qSxGNtJBplHK7vN-2" value="&lt;font style=&quot;font-size: 30px;&quot;&gt;&amp;lt;&amp;lt; system&amp;nbsp;&amp;gt;&amp;gt;&lt;br&gt;payment&lt;br&gt;&lt;/font&gt;" style="shape=umlActor;verticalLabelPosition=bottom;verticalAlign=top;html=1;" parent="1" vertex="1">
          <mxGeometry x="990" y="1672" width="80" height="160" as="geometry" />
        </mxCell>
        <mxCell id="wR-n1qSxGNtJBplHK7vN-4" value="choose mentoring &lt;br&gt;domain" style="ellipse;whiteSpace=wrap;html=1;" parent="1" vertex="1">
          <mxGeometry x="460" y="1512" width="155" height="100" as="geometry" />
        </mxCell>
        <mxCell id="wR-n1qSxGNtJBplHK7vN-5" value="Essayer de faire plus détaillé sur un autre diagramme&amp;nbsp;&lt;br&gt;ex: mentoring management, communication, admin &amp;amp; moderation, ..." style="text;html=1;strokeColor=none;fillColor=none;align=center;verticalAlign=middle;whiteSpace=wrap;rounded=0;" parent="1" vertex="1">
          <mxGeometry x="-247" y="1616" width="294" height="85" as="geometry" />
        </mxCell>
        <mxCell id="Ie-eCAqBjwcW4kxqSPMd-4" style="edgeStyle=orthogonalEdgeStyle;rounded=0;orthogonalLoop=1;jettySize=auto;html=1;entryX=1;entryY=0.5;entryDx=0;entryDy=0;dashed=1;" parent="1" source="Ie-eCAqBjwcW4kxqSPMd-1" target="Ie-eCAqBjwcW4kxqSPMd-3" edge="1">
          <mxGeometry relative="1" as="geometry">
            <Array as="points">
              <mxPoint x="671" y="1843" />
              <mxPoint x="671" y="1997" />
            </Array>
          </mxGeometry>
        </mxCell>
        <mxCell id="Ie-eCAqBjwcW4kxqSPMd-5" value="&amp;lt;&amp;lt; includes &amp;gt;&amp;gt;" style="edgeLabel;html=1;align=center;verticalAlign=middle;resizable=0;points=[];" parent="Ie-eCAqBjwcW4kxqSPMd-4" vertex="1" connectable="0">
          <mxGeometry x="0.0114" y="1" relative="1" as="geometry">
            <mxPoint y="-24" as="offset" />
          </mxGeometry>
        </mxCell>
        <mxCell id="Ie-eCAqBjwcW4kxqSPMd-1" value="Subscribe / Buy" style="ellipse;whiteSpace=wrap;html=1;" parent="1" vertex="1">
          <mxGeometry x="464.38" y="1801.5" width="155" height="100" as="geometry" />
        </mxCell>
        <mxCell id="Ie-eCAqBjwcW4kxqSPMd-2" style="rounded=0;orthogonalLoop=1;jettySize=auto;html=1;entryX=0.117;entryY=0.171;entryDx=0;entryDy=0;entryPerimeter=0;" parent="1" target="Ie-eCAqBjwcW4kxqSPMd-1" edge="1">
          <mxGeometry relative="1" as="geometry">
            <mxPoint x="122" y="1162" as="sourcePoint" />
            <mxPoint x="481.38000000003467" y="1820.5" as="targetPoint" />
          </mxGeometry>
        </mxCell>
        <mxCell id="Ie-eCAqBjwcW4kxqSPMd-3" value="Handle payments" style="ellipse;whiteSpace=wrap;html=1;" parent="1" vertex="1">
          <mxGeometry x="465.63" y="1947" width="155" height="100" as="geometry" />
        </mxCell>
        <mxCell id="Ie-eCAqBjwcW4kxqSPMd-7" value="" style="endArrow=classic;html=1;rounded=0;dashed=1;" parent="1" target="dLT3Ldc4Rn0UWTLQWtMB-21" edge="1">
          <mxGeometry width="50" height="50" relative="1" as="geometry">
            <mxPoint x="740" y="1278" as="sourcePoint" />
            <mxPoint x="619.38" y="1277.58" as="targetPoint" />
          </mxGeometry>
        </mxCell>
        <mxCell id="Ie-eCAqBjwcW4kxqSPMd-8" value="&amp;lt;&amp;lt; includes&amp;gt;&amp;gt;" style="edgeLabel;html=1;align=center;verticalAlign=middle;resizable=0;points=[];" parent="Ie-eCAqBjwcW4kxqSPMd-7" vertex="1" connectable="0">
          <mxGeometry x="-0.0847" relative="1" as="geometry">
            <mxPoint as="offset" />
          </mxGeometry>
        </mxCell>
      </root>
    </mxGraphModel>
  </diagram>
  <diagram id="TMP6rPw78qjPCxo4KZ1q" name="Class diagram">
    <mxGraphModel dx="4545" dy="1795" grid="0" gridSize="10" guides="1" tooltips="1" connect="1" arrows="1" fold="1" page="1" pageScale="1" pageWidth="1200" pageHeight="1920" math="0" shadow="0">
      <root>
        <mxCell id="0" />
        <mxCell id="1" parent="0" />
        <mxCell id="CjJf3CU17gfn-VTjzRXM-2" value="&lt;p style=&quot;margin:0px;margin-top:4px;text-align:center;&quot;&gt;&lt;b&gt;User&lt;/b&gt;&lt;/p&gt;&lt;hr size=&quot;1&quot;&gt;&lt;p style=&quot;margin:0px;margin-left:4px;&quot;&gt;+ userID: String&lt;/p&gt;&lt;p style=&quot;margin:0px;margin-left:4px;&quot;&gt;&lt;span style=&quot;background-color: initial;&quot;&gt;+ username: String&lt;/span&gt;&lt;br&gt;&lt;/p&gt;&lt;p style=&quot;margin:0px;margin-left:4px;&quot;&gt;&lt;span style=&quot;background-color: initial;&quot;&gt;+ password: String&amp;nbsp;&lt;/span&gt;&lt;br&gt;&lt;/p&gt;&lt;p style=&quot;margin:0px;margin-left:4px;&quot;&gt;+ email: String&lt;span style=&quot;background-color: initial;&quot;&gt;&lt;br&gt;&lt;/span&gt;&lt;/p&gt;&lt;p style=&quot;margin:0px;margin-left:4px;&quot;&gt;+ profileInfo: Object&lt;br&gt;&lt;/p&gt;&lt;hr size=&quot;1&quot;&gt;&lt;p style=&quot;margin:0px;margin-left:4px;&quot;&gt;+ registerUser()&lt;/p&gt;&lt;p style=&quot;margin:0px;margin-left:4px;&quot;&gt;+ logIn()&lt;/p&gt;&lt;p style=&quot;margin:0px;margin-left:4px;&quot;&gt;+ updateProfile()&lt;/p&gt;&lt;p style=&quot;margin:0px;margin-left:4px;&quot;&gt;&lt;br&gt;&lt;/p&gt;" style="verticalAlign=top;align=left;overflow=fill;fontSize=12;fontFamily=Helvetica;html=1;whiteSpace=wrap;" parent="1" vertex="1">
          <mxGeometry x="250" y="220" width="160" height="180" as="geometry" />
        </mxCell>
        <mxCell id="CjJf3CU17gfn-VTjzRXM-3" value="&lt;p style=&quot;margin:0px;margin-top:4px;text-align:center;&quot;&gt;&lt;b&gt;Mentorship&lt;/b&gt;&lt;/p&gt;&lt;hr size=&quot;1&quot;&gt;&lt;p style=&quot;margin:0px;margin-left:4px;&quot;&gt;+ mentorshipID: String&lt;/p&gt;&lt;p style=&quot;margin:0px;margin-left:4px;&quot;&gt;&lt;span style=&quot;background-color: initial;&quot;&gt;+ menteeID: String&lt;/span&gt;&lt;br&gt;&lt;/p&gt;&lt;p style=&quot;margin:0px;margin-left:4px;&quot;&gt;&lt;span style=&quot;background-color: initial;&quot;&gt;+ mentorID: String&amp;nbsp;&lt;/span&gt;&lt;/p&gt;&lt;hr size=&quot;1&quot;&gt;&lt;p style=&quot;margin:0px;margin-left:4px;&quot;&gt;+ createMentorship()&lt;/p&gt;&lt;p style=&quot;margin:0px;margin-left:4px;&quot;&gt;+ acceptMenteeRequest()&lt;/p&gt;&lt;p style=&quot;margin:0px;margin-left:4px;&quot;&gt;+ endMentorship()&lt;/p&gt;&lt;p style=&quot;margin:0px;margin-left:4px;&quot;&gt;&lt;br&gt;&lt;/p&gt;" style="verticalAlign=top;align=left;overflow=fill;fontSize=12;fontFamily=Helvetica;html=1;whiteSpace=wrap;" parent="1" vertex="1">
          <mxGeometry x="640" y="240" width="160" height="150" as="geometry" />
        </mxCell>
        <mxCell id="CjJf3CU17gfn-VTjzRXM-4" value="&lt;p style=&quot;margin:0px;margin-top:4px;text-align:center;&quot;&gt;&lt;b&gt;Content&lt;/b&gt;&lt;/p&gt;&lt;hr size=&quot;1&quot;&gt;&lt;p style=&quot;margin:0px;margin-left:4px;&quot;&gt;+ contentID: String&lt;/p&gt;&lt;p style=&quot;margin:0px;margin-left:4px;&quot;&gt;+ autorID: String&lt;/p&gt;&lt;p style=&quot;margin:0px;margin-left:4px;&quot;&gt;&lt;span style=&quot;background-color: initial;&quot;&gt;+ title: String&lt;/span&gt;&lt;br&gt;&lt;/p&gt;&lt;p style=&quot;margin:0px;margin-left:4px;&quot;&gt;&lt;span style=&quot;background-color: initial;&quot;&gt;+ description: String&amp;nbsp;&lt;/span&gt;&lt;br&gt;&lt;/p&gt;&lt;p style=&quot;margin:0px;margin-left:4px;&quot;&gt;+ contentData: Object&lt;/p&gt;&lt;hr size=&quot;1&quot;&gt;&lt;p style=&quot;margin:0px;margin-left:4px;&quot;&gt;+ createContent()&lt;/p&gt;&lt;p style=&quot;margin:0px;margin-left:4px;&quot;&gt;+ viewContent()&lt;/p&gt;&lt;p style=&quot;margin:0px;margin-left:4px;&quot;&gt;&lt;br&gt;&lt;/p&gt;" style="verticalAlign=top;align=left;overflow=fill;fontSize=12;fontFamily=Helvetica;html=1;whiteSpace=wrap;" parent="1" vertex="1">
          <mxGeometry x="940" y="380" width="150" height="160" as="geometry" />
        </mxCell>
        <mxCell id="CjJf3CU17gfn-VTjzRXM-5" value="&lt;p style=&quot;margin:0px;margin-top:4px;text-align:center;&quot;&gt;&lt;b&gt;Communications&lt;/b&gt;&lt;/p&gt;&lt;hr size=&quot;1&quot;&gt;&lt;p style=&quot;margin:0px;margin-left:4px;&quot;&gt;+ messageID: String&lt;/p&gt;&lt;p style=&quot;margin:0px;margin-left:4px;&quot;&gt;&lt;span style=&quot;background-color: initial;&quot;&gt;+ senderID: String&lt;/span&gt;&lt;br&gt;&lt;/p&gt;&lt;p style=&quot;margin:0px;margin-left:4px;&quot;&gt;&lt;span style=&quot;background-color: initial;&quot;&gt;+ receiverID: String&amp;nbsp;&lt;/span&gt;&lt;br&gt;&lt;/p&gt;&lt;p style=&quot;margin:0px;margin-left:4px;&quot;&gt;+ messageContent: String&lt;span style=&quot;background-color: initial;&quot;&gt;&lt;br&gt;&lt;/span&gt;&lt;/p&gt;&lt;p style=&quot;margin:0px;margin-left:4px;&quot;&gt;+ timestamp: Int&lt;br&gt;&lt;/p&gt;&lt;hr size=&quot;1&quot;&gt;&lt;p style=&quot;margin:0px;margin-left:4px;&quot;&gt;+ sendMessage()&lt;/p&gt;&lt;p style=&quot;margin:0px;margin-left:4px;&quot;&gt;+ displayMessages()&lt;/p&gt;&lt;p style=&quot;margin:0px;margin-left:4px;&quot;&gt;+ modifyMessage()&lt;/p&gt;&lt;p style=&quot;margin:0px;margin-left:4px;&quot;&gt;&lt;br&gt;&lt;/p&gt;" style="verticalAlign=top;align=left;overflow=fill;fontSize=12;fontFamily=Helvetica;html=1;whiteSpace=wrap;" parent="1" vertex="1">
          <mxGeometry x="270" y="620" width="160" height="180" as="geometry" />
        </mxCell>
        <mxCell id="CjJf3CU17gfn-VTjzRXM-6" value="&lt;p style=&quot;margin:0px;margin-top:4px;text-align:center;&quot;&gt;&lt;b&gt;Analytics&lt;/b&gt;&lt;/p&gt;&lt;hr size=&quot;1&quot;&gt;&lt;p style=&quot;margin:0px;margin-left:4px;&quot;&gt;&lt;span style=&quot;background-color: initial;&quot;&gt;+ analyticsData: Object&lt;/span&gt;&lt;br&gt;&lt;/p&gt;&lt;hr size=&quot;1&quot;&gt;&lt;p style=&quot;margin:0px;margin-left:4px;&quot;&gt;+ collectUserData()&lt;/p&gt;&lt;p style=&quot;margin:0px;margin-left:4px;&quot;&gt;+ analyzeUserBehavior()&lt;/p&gt;&lt;p style=&quot;margin:0px;margin-left:4px;&quot;&gt;+ generateReport()&lt;/p&gt;&lt;p style=&quot;margin:0px;margin-left:4px;&quot;&gt;&lt;br&gt;&lt;/p&gt;" style="verticalAlign=top;align=left;overflow=fill;fontSize=12;fontFamily=Helvetica;html=1;whiteSpace=wrap;" parent="1" vertex="1">
          <mxGeometry x="270" y="920" width="150" height="130" as="geometry" />
        </mxCell>
        <mxCell id="Nq6-ZOaxclL8tDjfVpnA-1" value="&lt;p style=&quot;margin:0px;margin-top:4px;text-align:center;&quot;&gt;&lt;b&gt;Moderation&lt;/b&gt;&lt;/p&gt;&lt;hr size=&quot;1&quot;&gt;&lt;p style=&quot;margin:0px;margin-left:4px;&quot;&gt;+ userID: String&lt;/p&gt;&lt;p style=&quot;margin:0px;margin-left:4px;&quot;&gt;&lt;span style=&quot;background-color: initial;&quot;&gt;+ username: String&lt;/span&gt;&lt;br&gt;&lt;/p&gt;&lt;p style=&quot;margin:0px;margin-left:4px;&quot;&gt;&lt;span style=&quot;background-color: initial;&quot;&gt;+ password: String&amp;nbsp;&lt;/span&gt;&lt;br&gt;&lt;/p&gt;&lt;p style=&quot;margin:0px;margin-left:4px;&quot;&gt;+ email: String&lt;span style=&quot;background-color: initial;&quot;&gt;&lt;br&gt;&lt;/span&gt;&lt;/p&gt;&lt;p style=&quot;margin:0px;margin-left:4px;&quot;&gt;+ profileInfo: Object&lt;br&gt;&lt;/p&gt;&lt;hr size=&quot;1&quot;&gt;&lt;p style=&quot;margin:0px;margin-left:4px;&quot;&gt;+ registerUser()&lt;/p&gt;&lt;p style=&quot;margin:0px;margin-left:4px;&quot;&gt;+ logIn()&lt;/p&gt;&lt;p style=&quot;margin:0px;margin-left:4px;&quot;&gt;+ updateProfile()&lt;/p&gt;&lt;p style=&quot;margin:0px;margin-left:4px;&quot;&gt;&lt;br&gt;&lt;/p&gt;" style="verticalAlign=top;align=left;overflow=fill;fontSize=12;fontFamily=Helvetica;html=1;whiteSpace=wrap;" parent="1" vertex="1">
          <mxGeometry x="730" y="780" width="160" height="180" as="geometry" />
        </mxCell>
        <mxCell id="Nq6-ZOaxclL8tDjfVpnA-3" value="" style="endArrow=none;html=1;edgeStyle=orthogonalEdgeStyle;rounded=0;exitX=1.007;exitY=0.225;exitDx=0;exitDy=0;exitPerimeter=0;entryX=-0.004;entryY=0.137;entryDx=0;entryDy=0;entryPerimeter=0;" parent="1" source="CjJf3CU17gfn-VTjzRXM-2" target="CjJf3CU17gfn-VTjzRXM-3" edge="1">
          <mxGeometry relative="1" as="geometry">
            <mxPoint x="460" y="370" as="sourcePoint" />
            <mxPoint x="620" y="370" as="targetPoint" />
          </mxGeometry>
        </mxCell>
        <mxCell id="Nq6-ZOaxclL8tDjfVpnA-4" value="1..*" style="edgeLabel;resizable=0;html=1;align=left;verticalAlign=bottom;" parent="Nq6-ZOaxclL8tDjfVpnA-3" connectable="0" vertex="1">
          <mxGeometry x="-1" relative="1" as="geometry">
            <mxPoint x="5" y="-5" as="offset" />
          </mxGeometry>
        </mxCell>
        <mxCell id="Nq6-ZOaxclL8tDjfVpnA-5" value="1..*" style="edgeLabel;resizable=0;html=1;align=right;verticalAlign=bottom;" parent="Nq6-ZOaxclL8tDjfVpnA-3" connectable="0" vertex="1">
          <mxGeometry x="1" relative="1" as="geometry">
            <mxPoint x="-11" y="-7" as="offset" />
          </mxGeometry>
        </mxCell>
        <mxCell id="Nq6-ZOaxclL8tDjfVpnA-6" value="" style="endArrow=none;html=1;edgeStyle=orthogonalEdgeStyle;rounded=0;exitX=0.555;exitY=1.014;exitDx=0;exitDy=0;exitPerimeter=0;entryX=0.438;entryY=-0.001;entryDx=0;entryDy=0;entryPerimeter=0;" parent="1" source="CjJf3CU17gfn-VTjzRXM-2" target="CjJf3CU17gfn-VTjzRXM-5" edge="1">
          <mxGeometry relative="1" as="geometry">
            <mxPoint x="705.72" y="472.46000000000004" as="sourcePoint" />
            <mxPoint x="460" y="550" as="targetPoint" />
            <Array as="points">
              <mxPoint x="340" y="403" />
            </Array>
          </mxGeometry>
        </mxCell>
        <mxCell id="Nq6-ZOaxclL8tDjfVpnA-7" value="1..*" style="edgeLabel;resizable=0;html=1;align=left;verticalAlign=bottom;" parent="Nq6-ZOaxclL8tDjfVpnA-6" connectable="0" vertex="1">
          <mxGeometry x="-1" relative="1" as="geometry">
            <mxPoint x="-24" y="24" as="offset" />
          </mxGeometry>
        </mxCell>
        <mxCell id="Nq6-ZOaxclL8tDjfVpnA-8" value="1" style="edgeLabel;resizable=0;html=1;align=right;verticalAlign=bottom;" parent="Nq6-ZOaxclL8tDjfVpnA-6" connectable="0" vertex="1">
          <mxGeometry x="1" relative="1" as="geometry">
            <mxPoint x="-8" y="-7" as="offset" />
          </mxGeometry>
        </mxCell>
        <mxCell id="Nq6-ZOaxclL8tDjfVpnA-10" value="" style="endArrow=none;html=1;edgeStyle=orthogonalEdgeStyle;rounded=0;exitX=1.011;exitY=0.547;exitDx=0;exitDy=0;exitPerimeter=0;entryX=0;entryY=0.111;entryDx=0;entryDy=0;entryPerimeter=0;" parent="1" source="CjJf3CU17gfn-VTjzRXM-2" target="Nq6-ZOaxclL8tDjfVpnA-1" edge="1">
          <mxGeometry relative="1" as="geometry">
            <mxPoint x="410" y="750" as="sourcePoint" />
            <mxPoint x="670" y="800" as="targetPoint" />
            <Array as="points">
              <mxPoint x="510" y="319" />
              <mxPoint x="510" y="800" />
            </Array>
          </mxGeometry>
        </mxCell>
        <mxCell id="Nq6-ZOaxclL8tDjfVpnA-11" value="1" style="edgeLabel;resizable=0;html=1;align=left;verticalAlign=bottom;" parent="Nq6-ZOaxclL8tDjfVpnA-10" connectable="0" vertex="1">
          <mxGeometry x="-1" relative="1" as="geometry">
            <mxPoint x="3" y="-1" as="offset" />
          </mxGeometry>
        </mxCell>
        <mxCell id="Nq6-ZOaxclL8tDjfVpnA-12" value="1..*" style="edgeLabel;resizable=0;html=1;align=right;verticalAlign=bottom;" parent="Nq6-ZOaxclL8tDjfVpnA-10" connectable="0" vertex="1">
          <mxGeometry x="1" relative="1" as="geometry">
            <mxPoint x="-10" as="offset" />
          </mxGeometry>
        </mxCell>
        <mxCell id="Nq6-ZOaxclL8tDjfVpnA-14" value="" style="endArrow=none;html=1;edgeStyle=orthogonalEdgeStyle;rounded=0;exitX=1.001;exitY=0.118;exitDx=0;exitDy=0;exitPerimeter=0;entryX=0.5;entryY=0;entryDx=0;entryDy=0;" parent="1" source="CjJf3CU17gfn-VTjzRXM-3" target="CjJf3CU17gfn-VTjzRXM-4" edge="1">
          <mxGeometry relative="1" as="geometry">
            <mxPoint x="820" y="260" as="sourcePoint" />
            <mxPoint x="1025" y="319" as="targetPoint" />
          </mxGeometry>
        </mxCell>
        <mxCell id="Nq6-ZOaxclL8tDjfVpnA-15" value="1..*" style="edgeLabel;resizable=0;html=1;align=left;verticalAlign=bottom;" parent="Nq6-ZOaxclL8tDjfVpnA-14" connectable="0" vertex="1">
          <mxGeometry x="-1" relative="1" as="geometry">
            <mxPoint x="10" as="offset" />
          </mxGeometry>
        </mxCell>
        <mxCell id="Nq6-ZOaxclL8tDjfVpnA-16" value="0..*" style="edgeLabel;resizable=0;html=1;align=right;verticalAlign=bottom;" parent="Nq6-ZOaxclL8tDjfVpnA-14" connectable="0" vertex="1">
          <mxGeometry x="1" relative="1" as="geometry">
            <mxPoint x="-5" y="-10" as="offset" />
          </mxGeometry>
        </mxCell>
        <mxCell id="Nq6-ZOaxclL8tDjfVpnA-17" value="" style="endArrow=none;html=1;edgeStyle=orthogonalEdgeStyle;rounded=0;exitX=0.572;exitY=0.991;exitDx=0;exitDy=0;exitPerimeter=0;entryX=0.572;entryY=0.004;entryDx=0;entryDy=0;entryPerimeter=0;" parent="1" source="CjJf3CU17gfn-VTjzRXM-5" target="CjJf3CU17gfn-VTjzRXM-6" edge="1">
          <mxGeometry relative="1" as="geometry">
            <mxPoint x="360" y="820" as="sourcePoint" />
            <mxPoint x="361" y="1037" as="targetPoint" />
            <Array as="points">
              <mxPoint x="361" y="820" />
              <mxPoint x="361" y="820" />
            </Array>
          </mxGeometry>
        </mxCell>
        <mxCell id="Nq6-ZOaxclL8tDjfVpnA-18" value="*" style="edgeLabel;resizable=0;html=1;align=left;verticalAlign=bottom;" parent="Nq6-ZOaxclL8tDjfVpnA-17" connectable="0" vertex="1">
          <mxGeometry x="-1" relative="1" as="geometry">
            <mxPoint x="-22" y="27" as="offset" />
          </mxGeometry>
        </mxCell>
        <mxCell id="Nq6-ZOaxclL8tDjfVpnA-19" value="*" style="edgeLabel;resizable=0;html=1;align=right;verticalAlign=bottom;" parent="Nq6-ZOaxclL8tDjfVpnA-17" connectable="0" vertex="1">
          <mxGeometry x="1" relative="1" as="geometry">
            <mxPoint x="-6" y="-7" as="offset" />
          </mxGeometry>
        </mxCell>
        <mxCell id="Nq6-ZOaxclL8tDjfVpnA-20" value="" style="endArrow=none;html=1;edgeStyle=orthogonalEdgeStyle;rounded=0;exitX=-0.012;exitY=0.421;exitDx=0;exitDy=0;exitPerimeter=0;entryX=0;entryY=0.5;entryDx=0;entryDy=0;" parent="1" source="CjJf3CU17gfn-VTjzRXM-2" target="CjJf3CU17gfn-VTjzRXM-6" edge="1">
          <mxGeometry relative="1" as="geometry">
            <mxPoint x="201" y="300" as="sourcePoint" />
            <mxPoint x="210" y="980" as="targetPoint" />
            <Array as="points">
              <mxPoint x="200" y="296" />
              <mxPoint x="200" y="985" />
            </Array>
          </mxGeometry>
        </mxCell>
        <mxCell id="Nq6-ZOaxclL8tDjfVpnA-21" value="*" style="edgeLabel;resizable=0;html=1;align=left;verticalAlign=bottom;" parent="Nq6-ZOaxclL8tDjfVpnA-20" connectable="0" vertex="1">
          <mxGeometry x="-1" relative="1" as="geometry">
            <mxPoint x="-12" y="20" as="offset" />
          </mxGeometry>
        </mxCell>
        <mxCell id="Nq6-ZOaxclL8tDjfVpnA-22" value="*" style="edgeLabel;resizable=0;html=1;align=right;verticalAlign=bottom;" parent="Nq6-ZOaxclL8tDjfVpnA-20" connectable="0" vertex="1">
          <mxGeometry x="1" relative="1" as="geometry">
            <mxPoint x="-8" y="-7" as="offset" />
          </mxGeometry>
        </mxCell>
        <mxCell id="Nq6-ZOaxclL8tDjfVpnA-23" value="" style="endArrow=none;html=1;edgeStyle=orthogonalEdgeStyle;rounded=0;entryX=-0.005;entryY=0.951;entryDx=0;entryDy=0;entryPerimeter=0;" parent="1" target="CjJf3CU17gfn-VTjzRXM-6" edge="1">
          <mxGeometry relative="1" as="geometry">
            <mxPoint x="702" y="239" as="sourcePoint" />
            <mxPoint x="194" y="1013" as="targetPoint" />
            <Array as="points">
              <mxPoint x="702" y="154" />
              <mxPoint x="124" y="154" />
              <mxPoint x="124" y="1044" />
            </Array>
          </mxGeometry>
        </mxCell>
        <mxCell id="Nq6-ZOaxclL8tDjfVpnA-24" value="*" style="edgeLabel;resizable=0;html=1;align=left;verticalAlign=bottom;" parent="Nq6-ZOaxclL8tDjfVpnA-23" connectable="0" vertex="1">
          <mxGeometry x="-1" relative="1" as="geometry">
            <mxPoint x="-14" y="-5" as="offset" />
          </mxGeometry>
        </mxCell>
        <mxCell id="Nq6-ZOaxclL8tDjfVpnA-25" value="*" style="edgeLabel;resizable=0;html=1;align=right;verticalAlign=bottom;" parent="Nq6-ZOaxclL8tDjfVpnA-23" connectable="0" vertex="1">
          <mxGeometry x="1" relative="1" as="geometry">
            <mxPoint x="-8" y="-7" as="offset" />
          </mxGeometry>
        </mxCell>
      </root>
    </mxGraphModel>
  </diagram>
</mxfile>
